<svg xmlns="http://www.w3.org/2000/svg" version="1.1" x="0" y="0" width="432.3" height="435.8" viewBox="0 0 432.3 435.8" enable-background="new -0.001 -0.045 432.347 435.847" xml:space="preserve"><path opacity="0.5" fill="#FFA64D" enable-background="new    " d="M21.3 309.1C50 280.2 413.6 6.6 419.8 12.8c4.8 4.8-265.7 372.8-294.3 401.6 -28.6 28.8-75.1 28.5-103.8-0.5C-7 384.8-7.2 338 21.3 309.1z"/><path opacity="0.3" fill="#FFA64D" enable-background="new    " d="M37.4 296.3c35-20.5 390.5-161.5 394.9-153.8 3.3 6-286.6 262.3-321.7 282.7 -35 20.4-79.8 8-99.9-27.5C-9.5 362.1 2.4 316.8 37.4 296.3z"/><path opacity="0.3" fill="#FFA64D" enable-background="new    " d="M138.2 397.8C158.6 362.5 298.3 4.4 290.8 0c-5.9-3.4-260.3 288.7-280.6 324.1 -20.2 35.3-8 80.4 27.3 100.6C72.8 445.1 117.9 433 138.2 397.8z"/><path opacity="0.2" fill="#FFA64D" enable-background="new    " d="M54.5 288.7c39.2-10.7 367.6-51.3 369.9-42.9 1.8 6.5-293.2 175.6-332.4 186.2 -39.2 10.6-79.3-12.9-89.6-52.5C-7.8 340 15.5 299.4 54.5 288.7z"/><path opacity="0.1" fill="#FFA64D" enable-background="new    " d="M54.5 288.7c39.2-10.7 304.6 49.3 306.8 57.7 1.8 6.5-230.2 75-269.4 85.6 -39.1 10.7-79.2-12.9-89.5-52.4C-7.8 340 15.5 299.4 54.5 288.7z"/><path opacity="0.1" fill="#FFA64D" enable-background="new    " d="M145.7 380.5c10.6-39.4-49-306.6-57.4-308.9C81.8 69.7 13.9 303.4 3.4 342.9c-10.5 39.5 12.9 79.8 52.2 90.2C94.8 443.4 135.1 419.9 145.7 380.5z"/><path opacity="0.2" fill="#FFA64D" enable-background="new    " d="M145.7 380.5c10.6-39.4 50.7-370.2 42.4-372.5C181.7 6.3 14 303.4 3.5 342.9c-10.5 39.4 12.9 79.8 52.1 90.2C94.9 443.4 135.2 419.9 145.7 380.5z"/></svg>